<svg xmlns="http://www.w3.org/2000/svg" viewBox="0 0 24 24">
  <rect width="24" height="24" rx="6" fill="#FFE003"/>
  <path d="M 20.004 10.159 L 19.8 12.027 L 18.525 12.252 C 18.432 12.61 18.317 12.961 18.18 13.304 L 19.091 14.224 L 18.154 15.848 L 16.878 15.541 C 16.649 15.83 16.402 16.103 16.138 16.361 L 16.599 17.575 L 15.085 18.674 L 14.045 17.872 C 13.719 18.041 13.383 18.188 13.039 18.315 L 12.967 19.615 L 11.133 20 L 10.509 18.844 C 10.143 18.866 9.775 18.866 9.409 18.844 L 8.82 20 L 6.986 19.604 L 6.884 18.288 C 6.541 18.157 6.206 18.005 5.881 17.833 L 4.875 18.653 L 3.369 17.546 L 3.805 16.295 C 3.544 16.037 3.299 15.763 3.071 15.475 L 1.826 15.807 L 0.897 14.177 L 1.799 13.222 C 1.736 13.058 1.681 12.906 1.622 12.722 C 1.563 12.537 1.512 12.353 1.465 12.168 L 0.19 11.963 L 0 10.095 L 1.213 9.591 C 1.231 9.222 1.272 8.854 1.335 8.49 L 0.253 7.781 L 0.836 5.995 L 2.146 6.03 C 2.219 5.886 2.295 5.745 2.376 5.605 C 2.362 5.609 2.421 5.497 2.439 5.497 C 2.523 5.353 2.611 5.214 2.702 5.076 L 1.999 3.984 L 3.252 2.591 L 4.437 3.159 C 4.719 2.924 5.018 2.707 5.329 2.512 L 5.125 1.228 L 6.833 0.469 L 7.685 1.472 C 8.039 1.375 8.399 1.3 8.763 1.249 L 9.095 0 L 10.962 0 L 11.335 1.263 C 11.697 1.32 12.056 1.398 12.409 1.499 L 13.183 0.543 L 14.871 1.304 L 14.703 2.606 L 15.588 3.258 L 16.733 2.671 L 17.982 4.062 L 17.302 5.189 L 17.844 6.14 L 19.118 6.073 L 19.709 7.859 L 18.635 8.603 L 18.749 9.691 L 20.004 10.159 Z M 11.17 12.523 L 13.868 12.523 L 13.868 11.52 L 13.191 11.52 L 13.191 9.14 L 13.868 9.14 L 13.868 8.115 L 13.191 8.115 L 13.191 7.639 C 13.191 7.229 13.32 7.024 13.515 7.024 C 13.711 7.024 13.766 7.155 13.868 7.5 L 14.944 6.682 C 14.636 6.272 14.155 6.067 13.487 6.067 C 12.236 6.067 11.781 6.907 11.781 7.727 L 11.781 8.1 L 11.17 8.1 L 11.17 9.126 L 11.781 9.126 L 11.781 11.498 L 11.17 11.498 L 11.17 12.523 Z M 7.377 10.358 C 7.377 9.63 7.683 9.202 8.221 9.202 C 8.759 9.202 9.083 9.63 9.083 10.34 C 9.083 11.086 8.767 11.533 8.239 11.533 C 7.711 11.533 7.377 11.086 7.377 10.358 Z M 5.227 14.5 L 8.221 14.5 L 8.221 13.474 L 7.387 13.474 L 7.387 12.066 C 7.545 12.242 7.738 12.382 7.954 12.477 C 8.17 12.572 8.403 12.62 8.639 12.617 C 9.741 12.617 10.522 11.674 10.522 10.331 C 10.522 9.025 9.715 8.035 8.657 8.035 C 8.412 8.035 8.17 8.091 7.95 8.2 C 7.73 8.308 7.537 8.466 7.387 8.66 L 7.387 8.101 L 5.227 8.101 L 5.227 9.126 L 5.969 9.126 L 5.969 13.474 L 5.227 13.474 L 5.227 14.5 Z M 17.952 17.085 L 17.781 17.085 L 17.781 17.352 L 17.918 17.352 C 18.032 17.352 18.138 17.345 18.138 17.215 C 18.138 17.085 18.043 17.085 17.952 17.085 Z M 17.781 17.822 L 17.648 17.822 L 17.648 16.97 L 17.975 16.97 C 18.176 16.97 18.271 17.047 18.271 17.211 C 18.273 17.241 18.268 17.271 18.257 17.3 C 18.247 17.328 18.23 17.354 18.209 17.375 C 18.188 17.397 18.163 17.414 18.135 17.425 C 18.107 17.436 18.077 17.441 18.047 17.44 L 18.29 17.822 L 18.149 17.822 L 17.918 17.44 L 17.781 17.44 L 17.781 17.822 Z M 17.322 17.806 C 17.243 17.685 17.202 17.543 17.204 17.398 C 17.204 17.303 17.223 17.209 17.26 17.121 C 17.297 17.033 17.35 16.953 17.418 16.886 C 17.485 16.819 17.565 16.766 17.653 16.73 C 17.74 16.694 17.834 16.676 17.929 16.676 C 18.073 16.676 18.213 16.719 18.333 16.8 C 18.452 16.88 18.545 16.995 18.6 17.128 C 18.655 17.262 18.669 17.409 18.64 17.551 C 18.611 17.693 18.542 17.823 18.439 17.925 C 18.337 18.026 18.207 18.095 18.066 18.123 C 17.925 18.15 17.779 18.134 17.646 18.078 C 17.514 18.022 17.401 17.927 17.322 17.806 Z M 17.444 17.071 C 17.376 17.167 17.337 17.281 17.333 17.398 C 17.329 17.479 17.342 17.56 17.37 17.635 C 17.399 17.711 17.442 17.78 17.498 17.839 C 17.554 17.897 17.621 17.943 17.695 17.974 C 17.769 18.006 17.849 18.022 17.929 18.021 C 18.046 18.021 18.16 17.986 18.258 17.921 C 18.355 17.856 18.432 17.764 18.478 17.656 C 18.523 17.547 18.536 17.428 18.515 17.312 C 18.494 17.197 18.439 17.09 18.358 17.005 C 18.277 16.92 18.173 16.861 18.059 16.836 C 17.945 16.81 17.826 16.819 17.716 16.861 C 17.607 16.902 17.512 16.976 17.444 17.071 Z" fill="#470A68" fill-rule="evenodd" transform="matrix(1 0 0 1 2 2)"/>
</svg>
